# xmcd CD database file
#
# Track frame offsets:
#	150
#	15567
#	48585
#	62551
#	76129
#	93677
#	111876
#	125889
#	145289
#	156645
#	168792
#	189000
#
# Disc length: 3130 seconds
#
# Revision: 0
# Processed by: cddbd v1.5.1PL0 Copyright (c) Steve Scherf et al.
# Submitted via: CDex 1.51
#
DISCID=9f0c380c
DTITLE=Jesus is Dead - War Zone - 2004 Winter -
DYEAR=2004
DGENRE=Rock
TTITLE0=Auferstanden aus Ruinen-廃墟からの復活
TTITLE1=Level_7
TTITLE2=Battle#3-Par÷ANoia-
TTITLE3=仲魔に出来ないと襲われますヨ?-第参章-
TTITLE4=STAGE_2
TTITLE5=Pain The Universe-2004-
TTITLE6=DM-Earth Light
TTITLE7=メインテーマ
TTITLE8=玄城バトル・NEO-CTF-Stadium2K4-
TTITLE9=エイトメロディーズ
TTITLE10=At The Front-Unlimited sound works-
TTITLE11=War Zone
EXTD=YEAR: 2004
EXTT0=
EXTT1=
EXTT2=
EXTT3=
EXTT4=
EXTT5=
EXTT6=
EXTT7=
EXTT8=
EXTT9=
EXTT10=
EXTT11=
PLAYORDER=
